<svg width="59" height="16" viewBox="0 0 59 16" fill="none" xmlns="http://www.w3.org/2000/svg">
<g clip-path="url(#clip0_1_3884)">
<path d="M4.54728 10.2572C4.54728 10.1237 4.51195 10.004 4.4413 9.89801C4.37064 9.79203 4.23718 9.69586 4.04092 9.60951C3.84858 9.51922 3.56596 9.43483 3.19306 9.35633C2.86334 9.28567 2.55913 9.19735 2.28043 9.09137C2.00174 8.98539 1.7623 8.85782 1.56211 8.70865C1.36192 8.55557 1.20491 8.37697 1.09107 8.17285C0.981165 7.96481 0.926211 7.72537 0.926211 7.45453C0.926211 7.19154 0.983128 6.94424 1.09696 6.71265C1.21079 6.47713 1.37566 6.27106 1.59155 6.09442C1.80744 5.91386 2.07043 5.77255 2.38053 5.67049C2.69062 5.56451 3.03997 5.51152 3.42858 5.51152C3.97026 5.51152 4.43541 5.59983 4.82401 5.77647C5.21654 5.95311 5.51682 6.19648 5.72486 6.50657C5.9329 6.81275 6.03692 7.15817 6.03692 7.54285H4.48251C4.48251 7.37406 4.44326 7.22097 4.36475 7.08359C4.29017 6.94621 4.17438 6.8363 4.01737 6.75387C3.86036 6.66751 3.66213 6.62433 3.42269 6.62433C3.2068 6.62433 3.02427 6.65966 2.87511 6.73031C2.72988 6.80097 2.61997 6.89321 2.54539 7.00705C2.47081 7.12088 2.43352 7.24649 2.43352 7.38387C2.43352 7.48593 2.45314 7.57817 2.4924 7.66061C2.53558 7.73911 2.60427 7.81173 2.69847 7.87846C2.79268 7.94519 2.92025 8.00603 3.08119 8.06098C3.24605 8.11594 3.4482 8.16893 3.68764 8.21996C4.1626 8.31416 4.57672 8.43977 4.92999 8.59678C5.28719 8.74987 5.56589 8.95398 5.76608 9.20913C5.96627 9.46427 6.06636 9.79007 6.06636 10.1865C6.06636 10.4691 6.00552 10.7282 5.88384 10.9637C5.76215 11.1953 5.58552 11.3975 5.35392 11.5702C5.12233 11.7429 4.8456 11.8783 4.52373 11.9764C4.20186 12.0707 3.83877 12.1178 3.43446 12.1178C2.8496 12.1178 2.35501 12.0137 1.95071 11.8057C1.54641 11.5937 1.24023 11.3268 1.03219 11.0049C0.824154 10.6791 0.720134 10.3416 0.720134 9.99222H2.20978C2.22155 10.2395 2.28828 10.4377 2.40997 10.5869C2.53165 10.7361 2.68474 10.844 2.86922 10.9107C3.05764 10.9735 3.25586 11.0049 3.4639 11.0049C3.69942 11.0049 3.89765 10.9735 4.05858 10.9107C4.21952 10.844 4.3412 10.7557 4.42363 10.6458C4.50606 10.5319 4.54728 10.4024 4.54728 10.2572ZM10.759 10.6458V7.70771C10.759 7.49182 10.7217 7.30537 10.6472 7.14836C10.5726 6.99135 10.4587 6.86966 10.3057 6.78331C10.1526 6.69695 9.95827 6.65377 9.72276 6.65377C9.51472 6.65377 9.33219 6.6891 9.17518 6.75975C9.0221 6.83041 8.90434 6.9305 8.82191 7.06004C8.73948 7.18565 8.69826 7.33088 8.69826 7.49574H7.13796C7.13796 7.23275 7.20077 6.9835 7.32638 6.74798C7.45199 6.50854 7.63059 6.29657 7.86218 6.11208C8.09769 5.92367 8.37835 5.77647 8.70415 5.67049C9.03387 5.56451 9.40285 5.51152 9.81108 5.51152C10.2939 5.51152 10.7237 5.59395 11.1005 5.75881C11.4813 5.91975 11.7796 6.16311 11.9955 6.48891C12.2153 6.81471 12.3252 7.2249 12.3252 7.71948V10.4986C12.3252 10.8165 12.3448 11.0893 12.3841 11.317C12.4273 11.5407 12.4901 11.735 12.5725 11.8999V12H10.9887C10.9141 11.8391 10.8572 11.6349 10.8179 11.3877C10.7787 11.1364 10.759 10.8891 10.759 10.6458ZM10.9769 8.11986L10.9887 9.04427H10.0054C9.76201 9.04427 9.54808 9.06978 9.3636 9.12081C9.17911 9.16791 9.02798 9.23857 8.91023 9.33277C8.79247 9.42306 8.70415 9.53296 8.64527 9.6625C8.58639 9.78811 8.55695 9.93138 8.55695 10.0923C8.55695 10.2493 8.59228 10.3906 8.66293 10.5162C8.73751 10.6419 8.8435 10.7419 8.98088 10.8165C9.12219 10.8872 9.28705 10.9225 9.47547 10.9225C9.75024 10.9225 9.98968 10.8676 10.1938 10.7576C10.3979 10.6438 10.5569 10.5064 10.6707 10.3455C10.7845 10.1846 10.8454 10.0315 10.8532 9.88624L11.3007 10.5575C11.2458 10.7184 11.1633 10.8891 11.0534 11.0697C10.9435 11.2503 10.8022 11.4191 10.6295 11.5761C10.4568 11.7331 10.2487 11.8626 10.0054 11.9647C9.76201 12.0667 9.47939 12.1178 9.15752 12.1178C8.74536 12.1178 8.37639 12.0353 8.05059 11.8705C7.72479 11.7056 7.46769 11.4799 7.27927 11.1934C7.09086 10.9068 6.99665 10.581 6.99665 10.216C6.99665 9.87839 7.05946 9.58007 7.18507 9.321C7.31068 9.06193 7.49713 8.84408 7.74442 8.66744C7.99171 8.48688 8.29788 8.35145 8.66293 8.26117C9.03191 8.16697 9.45388 8.11986 9.92884 8.11986H10.9769ZM17.2299 10.2572C17.2299 10.1237 17.1945 10.004 17.1239 9.89801C17.0532 9.79203 16.9198 9.69586 16.7235 9.60951C16.5312 9.51922 16.2485 9.43483 15.8756 9.35633C15.5459 9.28567 15.2417 9.19735 14.963 9.09137C14.6843 8.98539 14.4449 8.85782 14.2447 8.70865C14.0445 8.55557 13.8875 8.37697 13.7736 8.17285C13.6637 7.96481 13.6088 7.72537 13.6088 7.45453C13.6088 7.19154 13.6657 6.94424 13.7795 6.71265C13.8934 6.47713 14.0582 6.27106 14.2741 6.09442C14.49 5.91386 14.753 5.77255 15.0631 5.67049C15.3732 5.56451 15.7225 5.51152 16.1111 5.51152C16.6528 5.51152 17.118 5.59983 17.5066 5.77647C17.8991 5.95311 18.1994 6.19648 18.4074 6.50657C18.6155 6.81275 18.7195 7.15817 18.7195 7.54285H17.1651C17.1651 7.37406 17.1258 7.22097 17.0473 7.08359C16.9727 6.94621 16.8569 6.8363 16.6999 6.75387C16.5429 6.66751 16.3447 6.62433 16.1053 6.62433C15.8894 6.62433 15.7068 6.65966 15.5577 6.73031C15.4124 6.80097 15.3025 6.89321 15.228 7.00705C15.1534 7.12088 15.1161 7.24649 15.1161 7.38387C15.1161 7.48593 15.1357 7.57817 15.175 7.66061C15.2181 7.73911 15.2868 7.81173 15.381 7.87846C15.4753 7.94519 15.6028 8.00603 15.7638 8.06098C15.9286 8.11594 16.1308 8.16893 16.3702 8.21996C16.8452 8.31416 17.2593 8.43977 17.6126 8.59678C17.9698 8.74987 18.2485 8.95398 18.4486 9.20913C18.6488 9.46427 18.7489 9.79007 18.7489 10.1865C18.7489 10.4691 18.6881 10.7282 18.5664 10.9637C18.4447 11.1953 18.2681 11.3975 18.0365 11.5702C17.8049 11.7429 17.5282 11.8783 17.2063 11.9764C16.8844 12.0707 16.5213 12.1178 16.117 12.1178C15.5322 12.1178 15.0376 12.0137 14.6333 11.8057C14.229 11.5937 13.9228 11.3268 13.7148 11.0049C13.5067 10.6791 13.4027 10.3416 13.4027 9.99222H14.8923C14.9041 10.2395 14.9709 10.4377 15.0925 10.5869C15.2142 10.7361 15.3673 10.844 15.5518 10.9107C15.7402 10.9735 15.9384 11.0049 16.1465 11.0049C16.382 11.0049 16.5802 10.9735 16.7412 10.9107C16.9021 10.844 17.0238 10.7557 17.1062 10.6458C17.1886 10.5319 17.2299 10.4024 17.2299 10.2572ZM21.4574 2.95616V12H19.8971V2.95616H21.4574ZM21.2101 8.58501H20.7508C20.7508 8.14145 20.8097 7.73322 20.9275 7.36032C21.0452 6.98742 21.212 6.66359 21.4279 6.38882C21.6438 6.11012 21.9009 5.89423 22.1993 5.74114C22.5015 5.58806 22.8351 5.51152 23.2002 5.51152C23.5142 5.51152 23.7988 5.55666 24.0539 5.64694C24.313 5.73329 24.5348 5.87264 24.7193 6.06498C24.9038 6.25732 25.0451 6.50854 25.1432 6.81863C25.2453 7.12481 25.2963 7.49771 25.2963 7.93734V12H23.7301V7.92556C23.7301 7.63117 23.6869 7.39957 23.6006 7.23079C23.5142 7.05808 23.3906 6.93443 23.2296 6.85985C23.0726 6.78527 22.8783 6.74798 22.6467 6.74798C22.3955 6.74798 22.1796 6.79704 21.9991 6.89518C21.8185 6.98938 21.6693 7.12088 21.5516 7.28967C21.4377 7.45845 21.3514 7.65276 21.2925 7.87257C21.2376 8.09239 21.2101 8.32987 21.2101 8.58501ZM30.1774 10.6458V7.70771C30.1774 7.49182 30.1401 7.30537 30.0655 7.14836C29.9909 6.99135 29.8771 6.86966 29.724 6.78331C29.5709 6.69695 29.3766 6.65377 29.1411 6.65377C28.9331 6.65377 28.7505 6.6891 28.5935 6.75975C28.4404 6.83041 28.3227 6.9305 28.2403 7.06004C28.1578 7.18565 28.1166 7.33088 28.1166 7.49574H26.5563C26.5563 7.23275 26.6191 6.9835 26.7447 6.74798C26.8703 6.50854 27.0489 6.29657 27.2805 6.11208C27.516 5.92367 27.7967 5.77647 28.1225 5.67049C28.4522 5.56451 28.8212 5.51152 29.2294 5.51152C29.7122 5.51152 30.1421 5.59395 30.5189 5.75881C30.8996 5.91975 31.198 6.16311 31.4138 6.48891C31.6337 6.81471 31.7436 7.2249 31.7436 7.71948V10.4986C31.7436 10.8165 31.7632 11.0893 31.8024 11.317C31.8456 11.5407 31.9084 11.735 31.9909 11.8999V12H30.407C30.3324 11.8391 30.2755 11.6349 30.2363 11.3877C30.197 11.1364 30.1774 10.8891 30.1774 10.6458ZM30.3952 8.11986L30.407 9.04427H29.4237C29.1804 9.04427 28.9664 9.06978 28.7819 9.12081C28.5975 9.16791 28.4463 9.23857 28.3286 9.33277C28.2108 9.42306 28.1225 9.53296 28.0636 9.6625C28.0047 9.78811 27.9753 9.93138 27.9753 10.0923C27.9753 10.2493 28.0106 10.3906 28.0813 10.5162C28.1559 10.6419 28.2618 10.7419 28.3992 10.8165C28.5405 10.8872 28.7054 10.9225 28.8938 10.9225C29.1686 10.9225 29.408 10.8676 29.6121 10.7576C29.8163 10.6438 29.9752 10.5064 30.0891 10.3455C30.2029 10.1846 30.2637 10.0315 30.2716 9.88624L30.7191 10.5575C30.6641 10.7184 30.5817 10.8891 30.4718 11.0697C30.3619 11.2503 30.2206 11.4191 30.0478 11.5761C29.8751 11.7331 29.6671 11.8626 29.4237 11.9647C29.1804 12.0667 28.8977 12.1178 28.5759 12.1178C28.1637 12.1178 27.7947 12.0353 27.4689 11.8705C27.1431 11.7056 26.886 11.4799 26.6976 11.1934C26.5092 10.9068 26.415 10.581 26.415 10.216C26.415 9.87839 26.4778 9.58007 26.6034 9.321C26.729 9.06193 26.9155 8.84408 27.1628 8.66744C27.4101 8.48688 27.7162 8.35145 28.0813 8.26117C28.4503 8.16697 28.8722 8.11986 29.3472 8.11986H30.3952ZM36.6541 10.6458V7.70771C36.6541 7.49182 36.6168 7.30537 36.5422 7.14836C36.4676 6.99135 36.3538 6.86966 36.2007 6.78331C36.0476 6.69695 35.8533 6.65377 35.6178 6.65377C35.4098 6.65377 35.2273 6.6891 35.0702 6.75975C34.9172 6.83041 34.7994 6.9305 34.717 7.06004C34.6345 7.18565 34.5933 7.33088 34.5933 7.49574H33.033C33.033 7.23275 33.0958 6.9835 33.2214 6.74798C33.347 6.50854 33.5256 6.29657 33.7572 6.11208C33.9928 5.92367 34.2734 5.77647 34.5992 5.67049C34.9289 5.56451 35.2979 5.51152 35.7061 5.51152C36.1889 5.51152 36.6188 5.59395 36.9956 5.75881C37.3763 5.91975 37.6747 6.16311 37.8906 6.48891C38.1104 6.81471 38.2203 7.2249 38.2203 7.71948V10.4986C38.2203 10.8165 38.2399 11.0893 38.2792 11.317C38.3223 11.5407 38.3851 11.735 38.4676 11.8999V12H36.8837C36.8091 11.8391 36.7522 11.6349 36.713 11.3877C36.6737 11.1364 36.6541 10.8891 36.6541 10.6458ZM36.8719 8.11986L36.8837 9.04427H35.9004C35.6571 9.04427 35.4431 9.06978 35.2587 9.12081C35.0742 9.16791 34.923 9.23857 34.8053 9.33277C34.6875 9.42306 34.5992 9.53296 34.5403 9.6625C34.4814 9.78811 34.452 9.93138 34.452 10.0923C34.452 10.2493 34.4873 10.3906 34.558 10.5162C34.6326 10.6419 34.7386 10.7419 34.8759 10.8165C35.0172 10.8872 35.1821 10.9225 35.3705 10.9225C35.6453 10.9225 35.8847 10.8676 36.0888 10.7576C36.293 10.6438 36.4519 10.5064 36.5658 10.3455C36.6796 10.1846 36.7404 10.0315 36.7483 9.88624L37.1958 10.5575C37.1408 10.7184 37.0584 10.8891 36.9485 11.0697C36.8386 11.2503 36.6973 11.4191 36.5246 11.5761C36.3518 11.7331 36.1438 11.8626 35.9004 11.9647C35.6571 12.0667 35.3744 12.1178 35.0526 12.1178C34.6404 12.1178 34.2714 12.0353 33.9456 11.8705C33.6198 11.7056 33.3627 11.4799 33.1743 11.1934C32.9859 10.9068 32.8917 10.581 32.8917 10.216C32.8917 9.87839 32.9545 9.58007 33.0801 9.321C33.2057 9.06193 33.3922 8.84408 33.6395 8.66744C33.8868 8.48688 34.1929 8.35145 34.558 8.26117C34.927 8.16697 35.3489 8.11986 35.8239 8.11986H36.8719Z" fill="black"/>
<path d="M44.8184 7.69005V7.44864C44.8184 7.11107 44.9244 6.83237 45.1364 6.61256C45.3523 6.39274 45.6447 6.28283 46.0137 6.28283C46.3866 6.28283 46.681 6.39274 46.8969 6.61256C47.1128 6.83237 47.2207 7.11107 47.2207 7.44864V7.69005C47.2207 8.02369 47.1128 8.30043 46.8969 8.52024C46.6849 8.73613 46.3925 8.84408 46.0196 8.84408C45.6506 8.84408 45.3582 8.73613 45.1423 8.52024C44.9264 8.30043 44.8184 8.02369 44.8184 7.69005Z" fill="#737373"/>
</g>
<defs>
<clipPath id="clip0_1_3884">
<rect width="58.4654" height="15.5037" fill="white" transform="translate(0.343277)"/>
</clipPath>
</defs>
</svg>
