<svg width="35" height="10" viewBox="0 0 35 10" fill="none" xmlns="http://www.w3.org/2000/svg">
<path d="M6.32956 8.52105V9.41602H0.718372V8.63292L3.52691 5.50644C3.87233 5.12176 4.13925 4.79596 4.32766 4.52905C4.52 4.2582 4.65346 4.0168 4.72804 3.80483C4.80655 3.58894 4.8458 3.36913 4.8458 3.14538C4.8458 2.86276 4.78692 2.60762 4.66916 2.37996C4.55533 2.14836 4.38654 1.96388 4.1628 1.82649C3.93906 1.68911 3.66822 1.62041 3.35027 1.62041C2.96952 1.62041 2.65157 1.69499 2.39643 1.84416C2.14521 1.98939 1.9568 2.1935 1.83119 2.4565C1.70558 2.71949 1.64277 3.02174 1.64277 3.36324H0.55351C0.55351 2.88043 0.659492 2.43883 0.871457 2.03846C1.08342 1.63808 1.39744 1.32013 1.81352 1.08461C2.2296 0.845172 2.74185 0.725451 3.35027 0.725451C3.89196 0.725451 4.35514 0.82162 4.73982 1.01396C5.1245 1.20237 5.41889 1.46929 5.62301 1.81472C5.83105 2.15621 5.93507 2.55659 5.93507 3.01585C5.93507 3.26707 5.89189 3.52221 5.80553 3.78128C5.7231 4.03642 5.6073 4.29157 5.45814 4.54671C5.31291 4.80185 5.14216 5.05307 4.9459 5.30036C4.75356 5.54765 4.54748 5.79102 4.32766 6.03046L2.03138 8.52105H6.32956ZM12.2175 8.28554L13.8543 3.04529H14.5726L14.4313 4.08745L12.765 9.41602H12.0644L12.2175 8.28554ZM11.1164 3.04529L12.5119 8.34441L12.612 9.41602H11.876L10.0272 3.04529H11.1164ZM16.1388 8.3032L17.4695 3.04529H18.5529L16.7041 9.41602H15.974L16.1388 8.3032ZM14.7316 3.04529L16.3331 8.19722L16.5157 9.41602H15.8209L14.1075 4.07568L13.9662 3.04529H14.7316ZM22.3152 9.53377C21.8717 9.53377 21.4694 9.45919 21.1082 9.31003C20.751 9.15695 20.4429 8.94302 20.1838 8.66825C19.9287 8.39348 19.7324 8.06768 19.595 7.69086C19.4576 7.31403 19.389 6.90188 19.389 6.45439V6.2071C19.389 5.68896 19.4655 5.22774 19.6186 4.82344C19.7717 4.41521 19.9797 4.06979 20.2427 3.78717C20.5057 3.50455 20.804 3.29062 21.1377 3.14538C21.4713 3.00015 21.8167 2.92753 22.1739 2.92753C22.6293 2.92753 23.0218 3.00604 23.3515 3.16305C23.6852 3.32006 23.958 3.53988 24.1699 3.8225C24.3819 4.10119 24.5389 4.43091 24.641 4.81167C24.743 5.18849 24.7941 5.60065 24.7941 6.04813V6.53682H20.0366V5.64775H23.7048V5.56532C23.6891 5.2827 23.6302 5.00793 23.5282 4.74101C23.43 4.47409 23.273 4.25428 23.0571 4.08156C22.8412 3.90885 22.5468 3.8225 22.1739 3.8225C21.9266 3.8225 21.699 3.87549 21.4909 3.98147C21.2829 4.08353 21.1043 4.23661 20.9551 4.44073C20.806 4.64484 20.6902 4.8941 20.6078 5.18849C20.5253 5.48289 20.4841 5.82242 20.4841 6.2071V6.45439C20.4841 6.75664 20.5253 7.04122 20.6078 7.30814C20.6941 7.57114 20.8178 7.80273 20.9787 8.00292C21.1436 8.2031 21.3418 8.36012 21.5734 8.47395C21.8089 8.58778 22.0758 8.6447 22.3741 8.6447C22.7588 8.6447 23.0846 8.56619 23.3515 8.40918C23.6184 8.25217 23.852 8.04217 24.0522 7.77917L24.7116 8.3032C24.5742 8.51124 24.3996 8.70947 24.1876 8.89788C23.9756 9.08629 23.7146 9.23938 23.4045 9.35714C23.0983 9.47489 22.7353 9.53377 22.3152 9.53377ZM27.161 0.372176V9.41602H26.0659V0.372176H27.161ZM31.0529 3.04529L28.2738 6.01869L26.7194 7.63198L26.6311 6.47206L27.7439 5.14139L29.7222 3.04529H31.0529ZM30.0579 9.41602L27.7851 6.37785L28.3504 5.40634L31.3414 9.41602H30.0579Z" fill="#737373"/>
</svg>
